<?xml version="1.0" standalone="no"?>
<!DOCTYPE svg PUBLIC "-//W3C//DTD SVG 20010904//EN"
 "http://www.w3.org/TR/2001/REC-SVG-20010904/DTD/svg10.dtd">
<svg version="1.0" xmlns="http://www.w3.org/2000/svg"
 width="700.000000pt" height="700.000000pt" viewBox="0 0 700.000000 700.000000"
 preserveAspectRatio="xMidYMid meet">
<metadata>
Created by potrace 1.14, written by Peter Selinger 2001-2017
</metadata>
<g transform="translate(0.000000,700.000000) scale(0.100000,-0.100000)"
fill="#000000" stroke="none">
<path d="M1380 6913 c-126 -74 -536 -312 -626 -363 -33 -19 -236 -136 -399
-230 -55 -32 -120 -70 -145 -84 -25 -14 -82 -47 -127 -73 l-83 -47 0 -885 0
-886 493 -284 c270 -156 504 -292 519 -302 15 -11 29 -19 31 -19 3 0 65 -36
140 -79 74 -43 154 -90 178 -104 24 -13 72 -41 107 -61 l62 -37 213 122 c116
67 228 130 247 141 109 62 182 105 237 139 34 22 64 39 67 39 2 0 71 39 153
86 81 48 168 98 193 112 25 14 56 32 70 41 14 10 36 22 50 29 14 6 32 16 40
22 21 14 209 122 240 138 l25 13 0 887 0 887 -240 138 c-132 77 -309 179 -393
228 -84 49 -157 89 -163 89 -5 0 -9 5 -9 10 0 6 -4 10 -8 10 -9 0 -404 226
-483 275 -21 14 -40 25 -43 25 -2 0 -46 25 -97 55 -52 30 -96 54 -99 54 -3 -1
-70 -39 -150 -86z"/>
<path d="M5335 6923 c-72 -42 -146 -85 -165 -96 -90 -50 -631 -363 -1060 -612
l-175 -102 0 -883 0 -884 70 -41 c78 -47 695 -404 765 -443 25 -13 50 -28 55
-32 6 -4 30 -19 55 -32 25 -14 86 -49 135 -78 50 -29 115 -66 145 -83 30 -17
83 -48 118 -69 34 -21 64 -38 66 -38 3 0 31 -16 64 -36 l60 -35 294 169 c161
93 309 179 328 189 19 11 73 43 120 70 70 41 253 147 526 304 23 13 92 53 153
88 l111 64 0 886 0 886 -267 155 c-148 84 -405 233 -573 330 -168 97 -325 188
-350 202 -25 14 -97 56 -160 93 -63 37 -131 75 -150 85 l-36 18 -129 -75z"/>
<path d="M3390 3474 c-63 -36 -134 -76 -157 -90 -24 -13 -64 -36 -90 -50 -27
-15 -60 -35 -74 -45 -15 -10 -37 -23 -50 -29 -13 -6 -37 -19 -54 -30 -16 -11
-37 -23 -45 -27 -8 -4 -46 -26 -85 -48 -38 -23 -90 -53 -115 -67 -25 -14 -160
-92 -300 -173 -140 -81 -271 -157 -290 -168 -19 -10 -63 -36 -97 -55 l-63 -36
0 -886 0 -885 33 -19 c17 -10 57 -32 87 -49 30 -16 60 -33 65 -37 8 -6 243
-142 640 -370 17 -10 183 -106 369 -213 296 -172 341 -195 360 -185 12 6 149
85 306 176 157 91 310 180 340 197 30 18 116 67 190 110 171 99 426 245 555
320 55 31 105 61 110 66 7 7 10 318 10 893 l1 882 -284 165 c-157 90 -301 173
-321 184 -20 11 -47 28 -61 36 -14 9 -164 96 -335 194 -170 98 -359 206 -419
241 -59 35 -109 64 -110 64 0 0 -53 -30 -116 -66z"/>
</g>
</svg>
